# Made in Blockbench 4.9.4
mtllib Block_Earth_Stump.mtl

o cuboid
v 0.5375 0.6875 0.5375
v 0.5375 0.6875 -0.5375
v 0.5 0 0.5
v 0.5 0 -0.5
v -0.5375 0.6875 0.5375
v -0.5375 0.6875 -0.5375
v -0.5 0 0.5
v -0.5 0 -0.5
v -0.5375 0.3125 0.5375
v -0.5375 0.3125 -0.5375
v 0.5375 0.3125 -0.5375
v 0.5375 0.3125 0.5375
v -0.5375 0.6875 0
v -0.5375 0.3125 0
v -0.5 0 0
v 0.5 0 0
v 0.5375 0.3125 0
v 0.5375 0.6875 0
v 0 0.6875 0.5375
v 0 0.3125 0.5375
v 0 0 0.5
v 0 0 0
v 0 0 -0.5
v 0 0.3125 -0.5375
v 0 0.6875 -0.5375
v 0 0.6875 0
v -0.5983723958333332 0.4375 -0.5983723958333332
v -0.63125 0.625 0
v -0.63125 0.4375 0
v -0.5983723958333332 0.625 -0.5983723958333332
v 0 0.4375 -0.63125
v 0 0.625 -0.63125
v 0.5983723958333332 0.4375 -0.5983723958333332
v 0.5983723958333332 0.625 -0.5983723958333332
v 0.63125 0.4375 0
v 0.63125 0.625 0
v 0.5983723958333332 0.4375 0.5983723958333332
v 0.5983723958333332 0.625 0.5983723958333332
v 0 0.625 0.63125
v 0 0.4375 0.63125
v -0.5983723958333332 0.4375 0.5983723958333332
v -0.5983723958333332 0.625 0.5983723958333332
vt 0.2996375 0.390625
vt 0.14981875 0.390625
vt 0.14981875 0.34375
vt 0.2996375 0.34375
vt 0.551925 0.765625
vt 0.70174375 0.765625
vt 0.70174375 0.8125
vt 0.551925 0.8125
vt 0.029687500000000006 0.8379302066506431
vt 0.1640625 0.8379302066506431
vt 0.1640625 0.9723052066506431
vt 0.029687500000000006 0.9723052066506431
vt 0 0.40625
vt 0.125 0.40625
vt 0.125 0.53125
vt 0 0.53125
vt 0.34488633226490156 0.953125
vt 0.49470508226490156 0.953125
vt 0.49470508226490156 1
vt 0.34488633226490156 1
vt 0.8348011677350984 0.46875
vt 0.6849824177350984 0.46875
vt 0.6849824177350984 0.421875
vt 0.8348011677350984 0.421875
vt 0.5736857755583138 0.6516084870906251
vt 0.6986465037908518 0.6484753736879857
vt 0.7006187203499783 0.7271350280921625
vt 0.5662859375 0.730503125
vt 0.8205705418436802 0.3872558541179
vt 0.6862683552350984 0.3828328125
vt 0.6888583032559612 0.3041910739740121
vt 0.8137905698685954 0.30830553129298877
vt 0.2854068741085818 0.3091308541179
vt 0.1511046875 0.3047078125
vt 0.15369463552086285 0.22606607397401213
vt 0.27862690213349706 0.23018053129298877
vt 0.3666471078232154 0.8391084870906251
vt 0.4916078360557533 0.8359753736879857
vt 0.4935800526148798 0.9146350280921625
vt 0.35924726976490157 0.918003125
vt 0.8515625 0.8125
vt 0.70174375 0.8125
vt 0.70174375 0.765625
vt 0.8515625 0.765625
vt 0.8347392826617084 0.7220955507395426
vt 0.700439246999072 0.7265834284132973
vt 0.6978113336979681 0.6479429493912154
vt 0.8227415994306531 0.6437681794621412
vt 0 0.53125
vt 0.125 0.53125
vt 0.125 0.65625
vt 0 0.65625
vt 0.02876236890822864 0.22195161665503538
vt 0.15369463552086285 0.22606607397401213
vt 0.1511046875 0.3047078125
vt 0.016802500891418215 0.30028477088210004
vt 0 0.34375
vt 0.14981875 0.34375
vt 0.14981875 0.390625
vt 0 0.390625
vt 0.029687500000000006 0.7035552066506431
vt 0.1640625 0.7035552066506431
vt 0.1640625 0.8379302066506431
vt 0.029687500000000006 0.8379302066506431
vt 0.6473011677350984 0.9899673421586478
vt 0.49781183341299473 0.99989693306144
vt 0.49470508226490156 0.953125
vt 0.6441944165870053 0.9431954090972079
vt 0.62770061492661 0.9095955507395426
vt 0.4934005792639736 0.9140834284132973
vt 0.4907726659628696 0.8354429493912154
vt 0.6157029316955547 0.8312681794621412
vt 0.25 0.65625
vt 0.125 0.65625
vt 0.125 0.53125
vt 0.25 0.53125
vt 0.25 0.53125
vt 0.125 0.53125
vt 0.125 0.40625
vt 0.25 0.40625
vt 0.5639260366433271 0.3000766166550354
vt 0.6888583032559612 0.3041910739740121
vt 0.6862683552350984 0.3828328125
vt 0.5519661686265166 0.37840977088210004
vt 0.5354930834129947 0.4119454090972078
vt 0.6849824177350984 0.421875
vt 0.6818756665870053 0.46864693306144
vt 0.5323863322649016 0.4587173421586478
vt 0.2984375 0.9723052066506431
vt 0.1640625 0.9723052066506431
vt 0.1640625 0.8379302066506431
vt 0.2984375 0.8379302066506431
vt 0.2984375 0.8379302066506431
vt 0.1640625 0.8379302066506431
vt 0.1640625 0.7035552066506431
vt 0.2984375 0.7035552066506431
vt 0.70174375 0.765625
vt 0.551925 0.765625
vt 0.5662859375 0.730503125
vt 0.7004578125 0.7271390625
vt 0.008358197491991293 0.9875927072380011
vt 0.0015190695568904067 0.8379301395042827
vt 0.029687500000000006 0.8379302066506431
vt 0.029687500000000033 0.9722420984085143
vt 0.1642596375939494 1
vt 0.0145567454881948 0.9941091641734559
vt 0.029786786853082475 0.972305206650643
vt 0.1640625 0.9723052066506431
vt 0.8348011677350984 0.421875
vt 0.6849824177350984 0.421875
vt 0.6862683552350984 0.3828328125
vt 0.8204402302350984 0.38725156250000003
vt 0.6849824177350984 0.421875
vt 0.5354930834129947 0.4119454090972079
vt 0.5521502297154792 0.3778525637121104
vt 0.6862500539557357 0.38338845535229304
vt 0.31386971382596074 0.9920953848028979
vt 0.1642596375939494 1
vt 0.16405913362722227 0.9718322831633066
vt 0.29836762050799737 0.970875925816505
vt 0.32613229334935684 0.8378323559097762
vt 0.32024145752281274 0.9875352480155307
vt 0.2984375 0.9723052066506431
vt 0.29843749999999997 0.8380294935037256
vt 0.2996375 0.34375
vt 0.14981875 0.34375
vt 0.1511046875 0.3047078125
vt 0.2852765625 0.30912656250000003
vt 0.14981875 0.34375
vt 0.000329415677896322 0.3338204090972079
vt 0.01698656198038076 0.2997275637121104
vt 0.15108638622063725 0.30526345535229304
vt 0.3197668025080087 0.6882677060632851
vt 0.3266059304431096 0.8379302737970035
vt 0.2984375 0.8379302066506431
vt 0.29843749999999997 0.7036183148927718
vt 0.16399945890423165 0.6753867762075335
vt 0.31365661072601236 0.6823434104623276
vt 0.2982717020721971 0.704038370921996
vt 0.1639993928852289 0.703082271182171
vt 0.6441944165870053 0.9431954090972079
vt 0.49470508226490156 0.953125
vt 0.4934005792639736 0.9140834284132973
vt 0.6275703054050622 0.9095999052669971
vt 0.49470508226490156 0.953125
vt 0.34488633226490156 0.953125
vt 0.35924726976490157 0.918003125
vt 0.49341914476490156 0.9146390625
vt 0.014336891170513316 0.6822259041426344
vt 0.16399945890423165 0.6753867762075335
vt 0.16399939175787126 0.7035552066506431
vt 0.029687500000000006 0.7035552066506431
vt 0.0019927066506431057 0.8380280573915101
vt 0.007883542477187228 0.6883251652857554
vt 0.029687500000000006 0.7035552066506431
vt 0.029687499999999978 0.8378309197975606
vt 0.8512330843221037 0.7556954090972079
vt 0.70174375 0.765625
vt 0.700439246999072 0.7265834284132973
vt 0.8346089731401607 0.7220999052669971
vn 0.9984939296853984 0 -0.05486230382886818
vn -0.9984939296853984 0 -0.05486230382886818
vn 0 1 0
vn 0 -1 0
vn -0.05486230382886818 0 0.9984939296853984
vn -0.05486230382886818 0 -0.9984939296853984
vn -0.9928768384869222 -0.1191452206184306 0
vn 0 -0.11914522061843058 -0.9928768384869221
vn 0.9928768384869221 -0.11914522061843058 0
vn 0 -0.1191452206184306 0.9928768384869222
vn -0.9984939296853984 0 0.05486230382886818
vn -0.9928768384869221 -0.11914522061843058 0
vn 0 -1 0
vn 0.9928768384869222 -0.1191452206184306 0
vn 0.9984939296853984 0 0.05486230382886818
vn 0 1 0
vn 0.05486230382886818 0 0.9984939296853984
vn 0 -0.11914522061843058 0.9928768384869221
vn 0 -1 0
vn 0 -1 0
vn 0 -0.1191452206184306 -0.9928768384869222
vn 0.05486230382886818 0 -0.9984939296853984
vn 0 1 0
vn 0 1 0
vn -0.8884260950352699 -0.4564167026692179 -0.04881462060633363
vn -0.5544427421621697 0.8316641132432546 -0.03046388693198742
vn -0.038293944335551805 0.7160967590748163 -0.6969497869070412
vn -0.04391364091329745 -0.5994211984665088 -0.7992282646220117
vn 0.04881462060633363 -0.4564167026692179 -0.8884260950352699
vn 0.03046388693198742 0.8316641132432546 -0.5544427421621697
vn 0.6969497869070412 0.7160967590748163 -0.038293944335551805
vn 0.7992282646220118 -0.5994211984665088 -0.04391364091329745
vn 0.8884260950352699 -0.4564167026692179 0.04881462060633363
vn 0.5544427421621697 0.8316641132432546 0.03046388693198742
vn 0.038293944335551805 0.7160967590748163 0.6969497869070412
vn 0.04391364091329745 -0.5994211984665088 0.7992282646220117
vn -0.04881462060633363 -0.4564167026692179 0.8884260950352699
vn -0.03046388693198742 0.8316641132432546 0.5544427421621697
vn -0.6969497869070412 0.7160967590748163 0.038293944335551805
vn -0.7992282646220118 -0.5994211984665088 0.04391364091329745
usemtl m_3cd7d3a0-b677-004d-d867-f30a3e741af6
f 34/1/1 36/2/1 35/3/1 33/4/1
f 27/5/2 29/6/2 28/7/2 30/8/2
f 13/9/3 26/10/3 25/11/3 6/12/3
f 8/13/4 23/14/4 22/15/4 15/16/4
f 41/17/5 40/18/5 39/19/5 42/20/5
f 30/21/6 32/22/6 31/23/6 27/24/6
f 8/25/7 15/26/7 14/27/7 10/28/7
f 10/29/8 24/30/8 23/31/8 8/32/8
f 11/33/9 17/34/9 16/35/9 4/36/9
f 7/37/10 21/38/10 20/39/10 9/40/10
f 42/41/11 28/42/11 29/43/11 41/44/11
f 9/45/12 14/46/12 15/47/12 7/48/12
f 15/49/13 22/50/13 21/51/13 7/52/13
f 3/53/14 16/54/14 17/55/14 12/56/14
f 37/57/15 35/58/15 36/59/15 38/60/15
f 5/61/16 19/62/16 26/63/16 13/64/16
f 38/65/17 39/66/17 40/67/17 37/68/17
f 12/69/18 20/70/18 21/71/18 3/72/18
f 3/73/19 21/74/19 22/75/19 16/76/19
f 16/77/20 22/78/20 23/79/20 4/80/20
f 4/81/21 23/82/21 24/83/21 11/84/21
f 33/85/22 31/86/22 32/87/22 34/88/22
f 2/89/23 25/90/23 26/91/23 18/92/23
f 18/93/24 26/94/24 19/95/24 1/96/24
f 29/97/25 27/98/25 10/99/25 14/100/25
f 30/101/26 28/102/26 13/103/26 6/104/26
f 32/105/27 30/106/27 6/107/27 25/108/27
f 27/109/28 31/110/28 24/111/28 10/112/28
f 31/113/29 33/114/29 11/115/29 24/116/29
f 34/117/30 32/118/30 25/119/30 2/120/30
f 36/121/31 34/122/31 2/123/31 18/124/31
f 33/125/32 35/126/32 17/127/32 11/128/32
f 35/129/33 37/130/33 12/131/33 17/132/33
f 38/133/34 36/134/34 18/135/34 1/136/34
f 39/137/35 38/138/35 1/139/35 19/140/35
f 37/141/36 40/142/36 20/143/36 12/144/36
f 40/145/37 41/146/37 9/147/37 20/148/37
f 42/149/38 39/150/38 19/151/38 5/152/38
f 28/153/39 42/154/39 5/155/39 13/156/39
f 41/157/40 29/158/40 14/159/40 9/160/40
o plane
v -0.5937183601146078 0.7915007046449121 0.5375000000000001
v -0.5369695476471644 0.6801248891213663 0.5375000000000001
v -0.5937183601146078 0.7915007046449121 -0.5375000000000001
v -0.5369695476471644 0.6801248891213663 -0.5375000000000001
vt 0 0.125
vt 0.03125 0.125
vt 0.03125 0.390625
vt 0 0.390625
vn 0.8910065241883677 0.45399049973954697 0
usemtl m_b7351c0e-f4e2-bff3-e552-b06ac9b8c00c
f 43/161/41 44/162/41 46/163/41 45/164/41
o plane
v 0.5937183601146078 0.7915007046449121 0.5375000000000001
v 0.5369695476471644 0.6801248891213663 0.5375000000000001
v 0.5937183601146078 0.7915007046449121 -0.5375000000000001
v 0.5369695476471644 0.6801248891213663 -0.5375000000000001
vt 0.03125 0.3984375
vt 0.03125 0.1328125
vt 0 0.1328125
vt 0 0.3984375
vn -0.8910065241883677 0.45399049973954697 0
usemtl m_b7351c0e-f4e2-bff3-e552-b06ac9b8c00c
f 50/165/42 48/166/42 47/167/42 49/168/42
o plane
v -0.5375000000000001 0.7915007046449121 0.5937183601146079
v -0.5375000000000001 0.6801248891213663 0.5369695476471645
v 0.5375000000000001 0.7915007046449121 0.5937183601146079
v 0.5375000000000001 0.6801248891213663 0.5369695476471645
vt 0.265625 0.203125
vt 0 0.203125
vt 0 0.171875
vt 0.265625 0.171875
vn 0 0.45399049973954697 -0.8910065241883677
usemtl m_3cd7d3a0-b677-004d-d867-f30a3e741af6
f 54/169/43 52/170/43 51/171/43 53/172/43
o plane
v -0.5375000000000001 0.7915007046449121 -0.5937183601146078
v -0.5375000000000001 0.6801248891213663 -0.5369695476471644
v 0.5375000000000001 0.7915007046449121 -0.5937183601146078
v 0.5375000000000001 0.6801248891213663 -0.5369695476471644
vt 0 0.125
vt 0.03125 0.125
vt 0.03125 0.390625
vt 0 0.390625
vn 0 0.45399049973954697 0.8910065241883677
usemtl m_b7351c0e-f4e2-bff3-e552-b06ac9b8c00c
f 55/173/44 56/174/44 58/175/44 57/176/44
o cylinder
v 0 0.6875 0
v 0 1.1875 0
v 0.1941626073623883 0.6875 0.4687499999999999
v 0.16827425971406987 1.1875 0.40625
v 0.46875 0.6875 0.19416260736238833
v 0.40625 1.1875 0.1682742597140699
v 0.46875 0.6875 -0.1941626073623883
v 0.40625 1.1875 -0.16827425971406987
v 0.19416260736238836 0.6875 -0.46875
v 0.16827425971406992 1.1875 -0.40625
v -0.19416260736238827 0.6875 -0.46875
v -0.16827425971406984 1.1875 -0.40625000000000006
v -0.4687499999999998 0.6875 -0.1941626073623886
v -0.4062499999999999 1.1875 -0.16827425971407015
v -0.4687499999999999 0.6875 0.1941626073623884
v -0.40624999999999994 1.1875 0.16827425971406998
v -0.1941626073623886 0.6875 0.4687499999999998
v -0.16827425971407015 1.1875 0.4062499999999999
v -0.40624999999999994 0.9375 0.16827425971406998
v -0.4062499999999999 0.9375 -0.16827425971407015
v -0.16827425971406984 0.9375 -0.40625000000000006
v 0.16827425971406992 0.9375 -0.40625
v 0.40625 0.9375 -0.16827425971406987
v 0.40625 0.9375 0.1682742597140699
v 0.16827425971406987 0.9375 0.40625
v -0.16827425971407015 0.9375 0.4062499999999999
vt 0.546875 0.618853125
vt 0.478228125 0.6875
vt 0.4296875 0.5703125
vt 0.776578125 0.625
vt 0.776578125 0.5625
vt 0.860715625 0.5625
vt 0.860715625 0.625
vt 0.47175625 0.1875
vt 0.53125 0.24699375
vt 0.4296875 0.2890625
vt 0.546875 0.521771875
vt 0.546875 0.618853125
vt 0.4296875 0.5703125
vt 0.5714421875 0.625
vt 0.5714421875 0.5625
vt 0.6555796875 0.5625
vt 0.6555796875 0.625
vt 0.53125 0.24699375
vt 0.53125 0.33113125
vt 0.4296875 0.2890625
vt 0.478228125 0.453125
vt 0.546875 0.521771875
vt 0.4296875 0.5703125
vt 0.6555796875 0.625
vt 0.6555796875 0.5625
vt 0.7397171875 0.5625
vt 0.7397171875 0.625
vt 0.53125 0.33113125
vt 0.47175625 0.390625
vt 0.4296875 0.2890625
vt 0.381146875 0.453125
vt 0.478228125 0.453125
vt 0.4296875 0.5703125
vt 0.6808171875 1
vt 0.6808171875 0.9375
vt 0.7649546875 0.9375
vt 0.7649546875 1
vt 0.47175625 0.390625
vt 0.38761875 0.390625
vt 0.4296875 0.2890625
vt 0.3125 0.521771875
vt 0.381146875 0.453125
vt 0.4296875 0.5703125
vt 0.7649546875 1
vt 0.7649546875 0.9375
vt 0.8490921875 0.9375
vt 0.8490921875 1
vt 0.38761875 0.390625
vt 0.328125 0.33113125
vt 0.4296875 0.2890625
vt 0.3125 0.618853125
vt 0.3125 0.521771875
vt 0.4296875 0.5703125
vt 0.7587125 0.28125
vt 0.7587125 0.21875
vt 0.84285 0.21875
vt 0.84285 0.28125
vt 0.328125 0.33113125
vt 0.328125 0.24699375
vt 0.4296875 0.2890625
vt 0.381146875 0.6875
vt 0.3125 0.618853125
vt 0.4296875 0.5703125
vt 0.5493453125 0.28125
vt 0.5493453125 0.21875
vt 0.6334828125 0.21875
vt 0.6334828125 0.28125
vt 0.328125 0.24699375
vt 0.38761875 0.1875
vt 0.4296875 0.2890625
vt 0.478228125 0.6875
vt 0.381146875 0.6875
vt 0.4296875 0.5703125
vt 0.6334828125 0.28125
vt 0.6334828125 0.21875
vt 0.7176203125 0.21875
vt 0.7176203125 0.28125
vt 0.38761875 0.1875
vt 0.47175625 0.1875
vt 0.4296875 0.2890625
vt 0.849321875 0.1543265625
vt 0.84285 0.21875
vt 0.7587125 0.21875
vt 0.752240625 0.1543265625
vt 0.4453125 0.75
vt 0.438840625 0.8125
vt 0.354703125 0.8125
vt 0.34823125 0.75
vt 0.7714265625 0.8730765625
vt 0.7649546875 0.9375
vt 0.6808171875 0.9375
vt 0.6743453125 0.8730765625
vt 0.37833125 0.109375
vt 0.371859375 0.171875
vt 0.287721875 0.171875
vt 0.28125 0.109375
vt 0.6620515625 0.4980765625
vt 0.6555796875 0.5625
vt 0.5714421875 0.5625
vt 0.5649703125 0.4980765625
vt 0.8671875 0.4980765625
vt 0.860715625 0.5625
vt 0.776578125 0.5625
vt 0.77010625 0.4980765625
vt 0.7240921875 0.1543265625
vt 0.7176203125 0.21875
vt 0.6334828125 0.21875
vt 0.6270109375 0.1543265625
vt 0.89395625 0.84375
vt 0.887484375 0.90625
vt 0.803346875 0.90625
vt 0.796875 0.84375
vn 0 -1 0
vn 0.7071067811865476 0 0.7071067811865476
vn 0 1 0
vn 0 -1 0
vn 1 0 0
vn 0 1 0
vn 0 -1 0
vn 0.7071067811865476 0 -0.7071067811865475
vn 0 1 0
vn 0 -1 0
vn 1.649424912805496e-16 0 -1
vn 0 1 0
vn 0 -1 0
vn -0.7071067811865474 0 -0.7071067811865477
vn 0 1 0
vn 0 -1 0
vn -1 0 -1.6494249128054945e-16
vn 0 1 0
vn 0 -1 0
vn -0.7071067811865477 0 0.7071067811865474
vn 0 1 0
vn 0 -1 0
vn -3.29884982561099e-16 0 1
vn 0 1 0
vn -0.970142500145332 0.24253562503633275 -1.6001772087111186e-16
vn -0.6859943405700353 0.24253562503633272 -0.6859943405700356
vn 1.6001772087111206e-16 0.2425356250363328 -0.9701425001453321
vn 0.6859943405700355 0.24253562503633297 -0.6859943405700353
vn 0.9701425001453319 0.24253562503633297 0
vn 0.6859943405700353 0.24253562503633294 0.6859943405700354
vn -3.2003544174222386e-16 0.24253562503633255 0.9701425001453321
vn -0.6859943405700356 0.24253562503633275 0.6859943405700353
usemtl m_3cd7d3a0-b677-004d-d867-f30a3e741af6
f 63/177/45 61/178/45 59/179/45
f 62/180/46 83/181/46 82/182/46 64/183/46
f 62/184/47 64/185/47 60/186/47
f 65/187/48 63/188/48 59/189/48
f 64/190/49 82/191/49 81/192/49 66/193/49
f 64/194/50 66/195/50 60/196/50
f 67/197/51 65/198/51 59/199/51
f 66/200/52 81/201/52 80/202/52 68/203/52
f 66/204/53 68/205/53 60/206/53
f 69/207/54 67/208/54 59/209/54
f 68/210/55 80/211/55 79/212/55 70/213/55
f 68/214/56 70/215/56 60/216/56
f 71/217/57 69/218/57 59/219/57
f 70/220/58 79/221/58 78/222/58 72/223/58
f 70/224/59 72/225/59 60/226/59
f 73/227/60 71/228/60 59/229/60
f 72/230/61 78/231/61 77/232/61 74/233/61
f 72/234/62 74/235/62 60/236/62
f 75/237/63 73/238/63 59/239/63
f 74/240/64 77/241/64 84/242/64 76/243/64
f 74/244/65 76/245/65 60/246/65
f 61/247/66 75/248/66 59/249/66
f 76/250/67 84/251/67 83/252/67 62/253/67
f 76/254/68 62/255/68 60/256/68
f 73/257/69 77/258/69 78/259/69 71/260/69
f 71/261/70 78/262/70 79/263/70 69/264/70
f 69/265/71 79/266/71 80/267/71 67/268/71
f 67/269/72 80/270/72 81/271/72 65/272/72
f 65/273/73 81/274/73 82/275/73 63/276/73
f 63/277/74 82/278/74 83/279/74 61/280/74
f 61/281/75 83/282/75 84/283/75 75/284/75
f 75/285/76 84/286/76 77/287/76 73/288/76