# Made in Blockbench 4.9.4
mtllib Hamer.mtl

o cylinder
v 0 0 0
v 0 0.5625 0
v 0.01504920683773527 0 0.03125
v 0.01504920683773527 0.5625 0.03125
v 0.0338152608165166 0 0.007718112616170848
v 0.0338152608165166 0.5625 0.007718112616170848
v 0.027117733694847386 0 -0.021625670988440496
v 0.027117733694847386 0.5625 -0.021625670988440496
v 4.247673125759958e-18 0 -0.0346848832554607
v 4.247673125759958e-18 0.5625 -0.0346848832554607
v -0.02711773369484738 0 -0.021625670988440503
v -0.02711773369484738 0.5625 -0.021625670988440503
v -0.0338152608165166 0 0.00771811261617084
v -0.0338152608165166 0.5625 0.00771811261617084
v -0.015049206837735278 0 0.031249999999999997
v -0.015049206837735278 0.5625 0.031249999999999997
vt 0.32159375 0.568078125
vt 0.3122125 0.57984375
vt 0.3046875 0.56421875
vt 0.125 0.4375
vt 0.15625 0.4375
vt 0.15625 0.71875
vt 0.125 0.71875
vt 0.4059625 0.56078125
vt 0.41534375 0.572546875
vt 0.3984375 0.57640625
vt 0.318246875 0.55340625
vt 0.32159375 0.568078125
vt 0.3046875 0.56421875
vt 0.25 0.625
vt 0.28125 0.625
vt 0.28125 0.90625
vt 0.25 0.90625
vt 0.41534375 0.572546875
vt 0.411996875 0.58721875
vt 0.3984375 0.57640625
vt 0.3046875 0.546875
vt 0.318246875 0.55340625
vt 0.3046875 0.56421875
vt 0.375 0.71875
vt 0.40625 0.71875
vt 0.40625 1
vt 0.375 1
vt 0.411996875 0.58721875
vt 0.3984375 0.59375
vt 0.3984375 0.57640625
vt 0.291128125 0.55340625
vt 0.3046875 0.546875
vt 0.3046875 0.56421875
vt 0.3125 0.625
vt 0.34375 0.625
vt 0.34375 0.90625
vt 0.3125 0.90625
vt 0.3984375 0.59375
vt 0.384878125 0.58721875
vt 0.3984375 0.57640625
vt 0.28778125 0.568078125
vt 0.291128125 0.55340625
vt 0.3046875 0.56421875
vt 0 0.4375
vt 0.03125 0.4375
vt 0.03125 0.71875
vt 0 0.71875
vt 0.384878125 0.58721875
vt 0.38153125 0.572546875
vt 0.3984375 0.57640625
vt 0.2971625 0.57984375
vt 0.28778125 0.568078125
vt 0.3046875 0.56421875
vt 0.0625 0.4375
vt 0.09375 0.4375
vt 0.09375 0.71875
vt 0.0625 0.71875
vt 0.38153125 0.572546875
vt 0.3909125 0.56078125
vt 0.3984375 0.57640625
vt 0.3122125 0.57984375
vt 0.2971625 0.57984375
vt 0.3046875 0.56421875
vt 0.1875 0.625
vt 0.21875 0.625
vt 0.21875 0.90625
vt 0.1875 0.90625
vt 0.3909125 0.56078125
vt 0.4059625 0.56078125
vt 0.3984375 0.57640625
vn 0 -1 0
vn 0.7818314824680297 0 0.6234898018587336
vn 0 1 0
vn 0 -1 0
vn 0.9749279121818236 0 -0.22252093395631442
vn 0 1 0
vn 0 -1 0
vn 0.4338837391175581 0 -0.9009688679024191
vn 0 1 0
vn 0 -1 0
vn -0.43388373911755806 0 -0.9009688679024194
vn 0 1 0
vn 0 -1 0
vn -0.9749279121818236 0 -0.22252093395631467
vn 0 1 0
vn 0 -1 0
vn -0.7818314824680299 0 0.6234898018587334
vn 0 1 0
vn 0 -1 0
vn -1.1527009328006965e-16 0 1
vn 0 1 0
usemtl m_4a59ade0-3384-4fbd-5035-6d950b7fb2c4
f 5/1/1 3/2/1 1/3/1
f 3/4/2 5/5/2 6/6/2 4/7/2
f 4/8/3 6/9/3 2/10/3
f 7/11/4 5/12/4 1/13/4
f 5/14/5 7/15/5 8/16/5 6/17/5
f 6/18/6 8/19/6 2/20/6
f 9/21/7 7/22/7 1/23/7
f 7/24/8 9/25/8 10/26/8 8/27/8
f 8/28/9 10/29/9 2/30/9
f 11/31/10 9/32/10 1/33/10
f 9/34/11 11/35/11 12/36/11 10/37/11
f 10/38/12 12/39/12 2/40/12
f 13/41/13 11/42/13 1/43/13
f 11/44/14 13/45/14 14/46/14 12/47/14
f 12/48/15 14/49/15 2/50/15
f 15/51/16 13/52/16 1/53/16
f 13/54/17 15/55/17 16/56/17 14/57/17
f 14/58/18 16/59/18 2/60/18
f 3/61/19 15/62/19 1/63/19
f 15/64/20 3/65/20 4/66/20 16/67/20
f 16/68/21 4/69/21 2/70/21
o cuboid
v 0.15625 0.5437500000000001 0.06875
v 0.15625 0.5437500000000001 -0.06875
v 0.15625 0.4062500000000001 0.06875
v 0.15625 0.4062500000000001 -0.06875
v -0.15625 0.5437500000000001 0.06875
v -0.15625 0.5437500000000001 -0.06875
v -0.15625 0.4062500000000001 0.06875
v -0.15625 0.4062500000000001 -0.06875
vt 0.4375 0.6875
vt 0.375 0.6875
vt 0.375 0.625
vt 0.4375 0.625
vt 0.25 0.53125
vt 0.25 0.59375
vt 0.1875 0.59375
vt 0.1875 0.53125
vt 0 0.9375
vt 0.15625 0.9375
vt 0.15625 1
vt 0 1
vt 0.15625 0.84375
vt 0.15625 0.90625
vt 0 0.90625
vt 0 0.84375
vt 0.15625 0.75
vt 0.15625 0.8125
vt 0 0.8125
vt 0 0.75
vt 0.34375 1
vt 0.1875 1
vt 0.1875 0.9375
vt 0.34375 0.9375
vn 1 0 0
vn -1 0 0
vn 0 1 0
vn 0 -1 0
vn 0 0 1
vn 0 0 -1
usemtl m_4a59ade0-3384-4fbd-5035-6d950b7fb2c4
f 18/71/22 17/72/22 19/73/22 20/74/22
f 23/75/23 21/76/23 22/77/23 24/78/23
f 21/79/24 17/80/24 18/81/24 22/82/24
f 20/83/25 19/84/25 23/85/25 24/86/25
f 19/87/26 17/88/26 21/89/26 23/90/26
f 22/91/27 18/92/27 20/93/27 24/94/27