# Made in Blockbench 4.9.4
mtllib Spear.mtl

o cylinder
v 0 0 0
v 0 1.75 0
v 0.01504920683773527 0 0.03125
v 0.01504920683773527 1.75 0.025000000000000005
v 0.0338152608165166 0 0.007718112616170848
v 0.0338152608165166 1.75 0.007718112616170848
v 0.027117733694847386 0 -0.021625670988440496
v 0.027117733694847386 1.75 -0.018727053300834358
v 4.247673125759958e-18 0 -0.0346848832554607
v 4.247673125759958e-18 1.75 -0.029526743596806987
v -0.02711773369484738 0 -0.021625670988440503
v -0.02711773369484738 1.75 -0.021625670988440503
v -0.0338152608165166 0 0.00771811261617084
v -0.0338152608165166 1.75 0.00771811261617084
v -0.015049206837735278 0 0.031249999999999997
v -0.015049206837735278 1.75 0.024999999999999998
v 4.247673125759958e-18 1.625 -0.0346848832554607
v 0.027117733694847386 1.625 -0.021625670988440496
v 0.0338152608165166 1.625 0.007718112616170848
v 0.01504920683773527 1.625 0.03125
v -0.015049206837735278 1.625 0.031249999999999997
v -0.0338152608165166 1.625 0.00771811261617084
v -0.02711773369484738 1.625 -0.021625670988440503
v -0.03104621100771115 1.75 -0.02530306456482234
v -0.03871399189932452 1.625 0.009957377353016064
v -0.03104621100771115 1.625 -0.02530306456482234
v -0.03871399189932452 1.75 0.009957377353016064
v -0.01722934726922977 1.625 0.03823405630808542
v -0.01722934726922977 1.75 0.03823405630808542
v 0.01722934726922976 1.625 0.03823405630808542
v 0.01722934726922976 1.75 0.03823405630808542
v 0.03871399189932452 1.625 0.009957377353016085
v 0.03871399189932452 1.75 0.009957377353016085
v 0.031046211007711155 1.625 -0.02530306456482233
v 0.031046211007711155 1.75 -0.02530306456482233
v 4.881717709865378e-18 1.625 -0.0347454374993619
v 4.881717709865378e-18 1.75 -0.0347454374993619
v 0.031046211007711155 1.8125 -0.021528842867261856
v 4.881717709865378e-18 1.8125 -0.034745437499361896
v 4.247673125759958e-18 1.8125 -0.029430496432549438
v 0.027117733694847386 1.8125 -0.018431629947044354
v -0.03104621100771115 1.8125 -0.021528842867261862
v -0.02711773369484738 1.8125 -0.01843162994704436
v -0.01722934726922977 1.8125 0.03198405630808542
v 0.01722934726922976 1.8125 0.03198405630808542
v 0.01504920683773527 1.8125 0.026101871281207934
v -0.015049206837735278 1.8125 0.026101871281207934
vt 0.63409375 0.349328125
vt 0.6247125 0.36109375
vt 0.6171875 0.34546875
vt 0.53125 0.59375
vt 0.53125 0.53125
vt 0.5625 0.53125
vt 0.5625 0.59375
vt 0.6559625 0.9102375
vt 0.66534375 0.918878125
vt 0.6484375 0.9227375
vt 0.630746875 0.33465625
vt 0.63409375 0.349328125
vt 0.6171875 0.34546875
vt 0.53125 0.78125
vt 0.53125 0.71875
vt 0.5625 0.71875
vt 0.5625 0.78125
vt 0.66534375 0.918878125
vt 0.661996875 0.9321
vt 0.6484375 0.9227375
vt 0.6171875 0.328125
vt 0.630746875 0.33465625
vt 0.6171875 0.34546875
vt 0.5942995567219426 0.5936961361225269
vt 0.5942995567219426 0.5311961361225269
vt 0.6105245567219425 0.5311961361225269
vt 0.6105245567219425 0.5936961361225269
vt 0.661996875 0.9321
vt 0.6484375 0.9375
vt 0.6484375 0.9227375
vt 0.603628125 0.33465625
vt 0.6171875 0.328125
vt 0.6171875 0.34546875
vt 0.545628125 0.375
vt 0.545628125 0.3125
vt 0.561853125 0.3125
vt 0.561853125 0.375
vt 0.6484375 0.9375
vt 0.634878125 0.93355
vt 0.6484375 0.9227375
vt 0.60028125 0.349328125
vt 0.603628125 0.33465625
vt 0.6171875 0.34546875
vt 0.53125 0.6875
vt 0.53125 0.625
vt 0.5625 0.625
vt 0.5625 0.6875
vt 0.634878125 0.93355
vt 0.63153125 0.918878125
vt 0.6484375 0.9227375
vt 0.6096625 0.36109375
vt 0.60028125 0.349328125
vt 0.6171875 0.34546875
vt 0.53125 0.5
vt 0.53125 0.4375
vt 0.5625 0.4375
vt 0.5625 0.5
vt 0.63153125 0.918878125
vt 0.6409125 0.9102375
vt 0.6484375 0.9227375
vt 0.6247125 0.36109375
vt 0.6096625 0.36109375
vt 0.6171875 0.34546875
vt 0.600759375 0.74984375
vt 0.600759375 0.68734375
vt 0.617990625 0.68734375
vt 0.617990625 0.74984375
vt 0.6409125 0.9102375
vt 0.6559625 0.9102375
vt 0.6484375 0.9227375
vt 0.40625 0.1875
vt 0.40625 1
vt 0.375 1
vt 0.375 0.1875
vt 0.09375 0.1875
vt 0.09375 1
vt 0.0625 1
vt 0.0625 0.1875
vt 0.28125 0.1875
vt 0.28125 1
vt 0.25 1
vt 0.25 0.1875
vt 0.03125 0.1875
vt 0.03125 1
vt 0 1
vt 0 0.1875
vt 0.21875 0.1875
vt 0.21875 1
vt 0.1875 1
vt 0.1875 0.1875
vt 0.15625 0.1875
vt 0.15625 1
vt 0.125 1
vt 0.125 0.1875
vt 0.34375 0.1875
vt 0.34375 1
vt 0.3125 1
vt 0.3125 0.1875
vt 0.59783125 0.444225
vt 0.601665625 0.426596875
vt 0.603628125 0.42843437500000003
vt 0.60028125 0.44310625000000003
vt 0.632915625 0.9353875
vt 0.62908125 0.917759375
vt 0.63153125 0.918878125
vt 0.634878125 0.93355
vt 0.608571875 0.4583625
vt 0.59783125 0.444225
vt 0.60028125 0.44310625000000003
vt 0.6096625 0.45487187500000004
vt 0.62908125 0.917759375
vt 0.639821875 0.903621875
vt 0.6409125 0.9102375
vt 0.63153125 0.918878125
vt 0.625803125 0.4583625
vt 0.608571875 0.4583625
vt 0.6096625 0.45487187500000004
vt 0.6247125 0.45487187500000004
vt 0.663259375 0.5625
vt 0.680490625 0.5625
vt 0.6794 0.59375
vt 0.66435 0.59375
vt 0.63654375 0.444225
vt 0.625803125 0.4583625
vt 0.6247125 0.45487187500000004
vt 0.63409375 0.44310625000000003
vt 0.657053125 0.903621875
vt 0.66779375 0.917759375
vt 0.66534375 0.918878125
vt 0.6559625 0.9102375
vt 0.632709375 0.426596875
vt 0.63654375 0.444225
vt 0.63409375 0.44310625000000003
vt 0.630746875 0.42843437500000003
vt 0.66779375 0.917759375
vt 0.663959375 0.9353875
vt 0.661996875 0.9321
vt 0.66534375 0.918878125
vt 0.6171875 0.421875
vt 0.632709375 0.426596875
vt 0.630746875 0.42843437500000003
vt 0.6171875 0.42190312500000005
vt 0.687396875 0.5246437500000001
vt 0.671875 0.53125
vt 0.671875 0.52859375
vt 0.685434375 0.52309375
vt 0.601665625 0.426596875
vt 0.6171875 0.421875
vt 0.6171875 0.42190312500000005
vt 0.603628125 0.42843437500000003
vt 0.671875 0.53125
vt 0.656353125 0.5246437500000001
vt 0.658315625 0.52309375
vt 0.671875 0.52859375
vt 0.6106215708829643 0.6248986986834454
vt 0.59375 0.625
vt 0.5942995567219426 0.5936961361225269
vt 0.6104342225507179 0.5936961361225269
vt 0.46875 0.328125
vt 0.46875 0.3427562473663758
vt 0.4375 0.3427562473663758
vt 0.4375 0.32815937499381254
vt 0.701959375 0.375
vt 0.69945625 0.375
vt 0.699546875 0.34375
vt 0.703125 0.34375
vt 0.5625 0.40625
vt 0.545628125 0.40625
vt 0.545628125 0.375
vt 0.5617624999999999 0.375
vt 0.718899281791908 0.2970526524279118
vt 0.7188060824885717 0.2995540417729523
vt 0.6875 0.2995540417729523
vt 0.6876091999629186 0.296875
vt 0.6875 0.734409375
vt 0.65625 0.734409375
vt 0.65685 0.703125
vt 0.6875 0.7031906250000001
vt 0.617990625 0.78125
vt 0.600759375 0.78125
vt 0.600759375 0.74984375
vt 0.617990625 0.74984375
vt 0.693565625 0.45314374999999996
vt 0.690428125 0.45314374999999996
vt 0.6875 0.421875
vt 0.694084375 0.42191875
vt 0.6875 0.65625
vt 0.65625 0.65625
vt 0.65625 0.625
vt 0.6875 0.625
vt 0.6875 0.8434572403145764
vt 0.6596827114698429 0.84375
vt 0.65625 0.8126816331972063
vt 0.6875 0.8120765801864318
vn 0 -1 0
vn 0.7962385794502957 0 0.6049827473531582
vn 0 1 0
vn 0 -1 0
vn 0.9771621675053462 0 -0.21249493734264344
vn 0 1 0
vn 0 -1 0
vn 0.2909790217609785 0 -0.9567294334842135
vn 0 1 0
vn 0 -1 0
vn -0.2909790217609784 0 -0.9567294334842136
vn 0 1 0
vn 0 -1 0
vn -0.977162167505346 0 -0.21249493734264366
vn 0 1 0
vn 0 -1 0
vn -0.796238579450296 0 0.6049827473531577
vn 0 1 0
vn 0 -1 0
vn 0 0 1
vn 0 1 0
vn 0.4338837391175581 0 -0.9009688679024191
vn 0.9749279121818236 0 -0.22252093395631442
vn 0.7818314824680297 0 0.6234898018587336
vn -1.1527009328006965e-16 0 1
vn -0.7818314824680299 0 0.6234898018587334
vn -0.9749279121818236 0 -0.22252093395631464
vn -0.433883739117558 0 -0.9009688679024194
vn 0 -1 0
vn 0 1 0
vn 0 -1 0
vn 0 1 0
vn 0 -1 0
vn 0 1 0
vn 0 -1 0
vn 0 1 0
vn 0 -1 0
vn 0 1 0
vn 0 -1 0
vn 0 1 0
vn 0 -1 0
vn 0 1 0
vn 0.3910884746396631 0.05547680509554046 -0.918679557354148
vn -0.3758570606976642 -0.0014270398462318654 0.9266765527847297
vn 0.6191206423061876 -0.003711874449035335 0.7852871145373829
vn -0.3916916891587011 1.0282176119381283e-16 -0.9200965278947659
vn -0.6184299243704041 -0.04736865710469482 0.7844110140527822
vn 0.37543667648618684 -0.04730451921857736 0.9256400944268273
vn 0 0.09950371902099889 0.9950371902099892
vn 0.9371023479159045 -0.034732241638179076 -0.3473224163817908
vn 0 0.01762720131461183 -0.9998446288168049
vn -0.9376504870795321 0.006126855220545551 -0.34752557564102066
usemtl m_782277c5-4df0-ba5c-c1b6-2ef5f66e2d49
f 5/1/1 3/2/1 1/3/1
f 31/4/2 30/5/2 32/6/2 33/7/2
f 4/8/3 6/9/3 2/10/3
f 7/11/4 5/12/4 1/13/4
f 33/14/5 32/15/5 34/16/5 35/17/5
f 6/18/6 8/19/6 2/20/6
f 9/21/7 7/22/7 1/23/7
f 35/24/8 34/25/8 36/26/8 37/27/8
f 8/28/9 10/29/9 2/30/9
f 11/31/10 9/32/10 1/33/10
f 37/34/11 36/35/11 26/36/11 24/37/11
f 10/38/12 12/39/12 2/40/12
f 13/41/13 11/42/13 1/43/13
f 24/44/14 26/45/14 25/46/14 27/47/14
f 12/48/15 14/49/15 2/50/15
f 15/51/16 13/52/16 1/53/16
f 27/54/17 25/55/17 28/56/17 29/57/17
f 14/58/18 16/59/18 2/60/18
f 3/61/19 15/62/19 1/63/19
f 29/64/20 28/65/20 30/66/20 31/67/20
f 16/68/21 4/69/21 2/70/21
f 9/71/22 17/72/22 18/73/22 7/74/22
f 7/75/23 18/76/23 19/77/23 5/78/23
f 5/79/24 19/80/24 20/81/24 3/82/24
f 3/83/25 20/84/25 21/85/25 15/86/25
f 15/87/26 21/88/26 22/89/26 13/90/26
f 13/91/27 22/92/27 23/93/27 11/94/27
f 11/95/28 23/96/28 17/97/28 9/98/28
f 25/99/29 26/100/29 23/101/29 22/102/29
f 24/103/30 27/104/30 14/105/30 12/106/30
f 28/107/31 25/108/31 22/109/31 21/110/31
f 27/111/32 29/112/32 16/113/32 14/114/32
f 30/115/33 28/116/33 21/117/33 20/118/33
f 44/119/34 45/120/34 46/121/34 47/122/34
f 32/123/35 30/124/35 20/125/35 19/126/35
f 31/127/36 33/128/36 6/129/36 4/130/36
f 34/131/37 32/132/37 19/133/37 18/134/37
f 33/135/38 35/136/38 8/137/38 6/138/38
f 36/139/39 34/140/39 18/141/39 17/142/39
f 38/143/40 39/144/40 40/145/40 41/146/40
f 26/147/41 36/148/41 17/149/41 23/150/41
f 39/151/42 42/152/42 43/153/42 40/154/42
f 39/155/43 38/156/43 35/157/43 37/158/43
f 41/159/44 40/160/44 10/161/44 8/162/44
f 38/163/45 41/164/45 8/165/45 35/166/45
f 42/167/46 39/168/46 37/169/46 24/170/46
f 43/171/47 42/172/47 24/173/47 12/174/47
f 40/175/48 43/176/48 12/177/48 10/178/48
f 45/179/49 44/180/49 29/181/49 31/182/49
f 46/183/50 45/184/50 31/185/50 4/186/50
f 47/187/51 46/188/51 4/189/51 16/190/51
f 44/191/52 47/192/52 16/193/52 29/194/52
o cuboid
v 0.034375 1.9499999999999984 0.012499999999999999
v 0.034375 1.9499999999999984 -0.012499999999999999
v 0.03535714285714286 1.75 0.018749999999999996
v 0.03535714285714286 1.75 -0.018749999999999996
v -0.034375 1.9499999999999984 0.012499999999999999
v -0.034375 1.9499999999999984 -0.012499999999999999
v -0.03535714285714286 1.75 0.018749999999999996
v -0.03535714285714286 1.75 -0.018749999999999996
v 0 1.9499999999999984 -0.01875
v 0 1.9499999999999984 0.01875
v 0 1.75 0.03125
v 0 1.75 -0.03125
v 0.049107142857142856 1.9499999999999984 0
v 0.044196428571428574 1.75 0
v 0 1.75 0
v -0.044196428571428574 1.75 0
v -0.049107142857142856 1.9499999999999984 0
v 0 2.0625 0
v 0.048125 1.8125 -0.012499999999999999
v 0 1.8125 -0.03125
v -0.048125 1.8125 -0.012499999999999999
v -0.06874999999999999 1.8125 0
v -0.048125 1.8125 0.012499999999999999
v 0 1.8125 0.03125
v 0.048125 1.8125 0.012499999999999999
v 0.06874999999999999 1.8125 0
vt 0.47398270686237687 0.6235048390547062
vt 0.484375 0.6554307252010974
vt 0.47231569370276133 0.6553900186905012
vt 0.4653413953338861 0.6246194265927993
vt 0.45664479197689706 0.40534204828376996
vt 0.4495593746717735 0.4365966460125903
vt 0.4375 0.43659383240042227
vt 0.44800731918883496 0.4052244080435813
vt 0.4731441848998399 0.5055124687692716
vt 0.4710433840275856 0.5625
vt 0.44686919187149216 0.5060859170431187
vt 0.4559656246717735 0.5053935210125904
vt 0.630759375 0.99375
vt 0.626340625 0.984375
vt 0.6484375 0.984375
vt 0.6484375 1
vt 0.47538437467177347 0.4053466460125903
vt 0.47538437467177347 0.4365966460125903
vt 0.4495593746717735 0.4365966460125903
vt 0.45664374967177346 0.4053466460125903
vt 0.4653413953338861 0.8433694265927993
vt 0.4724257703338861 0.8746256765927993
vt 0.4466007703338861 0.8746256765927993
vt 0.4466007703338861 0.8433819265927993
vt 0.4641803959172228 0.7246214621608569
vt 0.473746443630839 0.7259609607728174
vt 0.4470999946206861 0.78125
vt 0.4488695203338861 0.7248725515927994
vt 0.4653413953338861 0.6246194265927993
vt 0.4724257703338861 0.6558756765927993
vt 0.4466007703338861 0.6558756765927993
vt 0.4466007703338861 0.6246319265927993
vt 0.6484375 1
vt 0.6484375 0.984375
vt 0.670534375 0.984375
vt 0.666115625 0.99375
vt 0.5691343746717735 0.8428466460125903
vt 0.5691343746717735 0.8740966460125903
vt 0.5433093746717734 0.8740966460125903
vt 0.5503937496717735 0.8428466460125903
vt 0.550394791976897 0.84284204828377
vt 0.5433093746717734 0.8740966460125903
vt 0.53125 0.8740938324004223
vt 0.541757319188835 0.8427244080435813
vt 0.666115625 0.975
vt 0.670534375 0.984375
vt 0.6484375 0.984375
vt 0.6484375 0.96875
vt 0.6484375 0.96875
vt 0.6484375 0.984375
vt 0.626340625 0.984375
vt 0.630759375 0.975
vt 0.47398270686237687 0.8422548390547062
vt 0.484375 0.8741807252010974
vt 0.47231569370276133 0.8741400186905012
vt 0.4653413953338861 0.8433694265927993
vt 0.4641803959172228 0.9433714621608569
vt 0.473746443630839 0.9447109607728174
vt 0.4470999946206861 1
vt 0.4488695203338861 0.9436225515927994
vt 0.5668941848998399 0.9430124687692716
vt 0.5647933840275856 1
vt 0.5406191918714922 0.9435859170431187
vt 0.5497156246717735 0.9428935210125904
vt 0.5497156246717735 0.9428935210125904
vt 0.5433093746717734 0.8740966460125903
vt 0.5691343746717735 0.8740966460125903
vt 0.5668656246717735 0.9430122710125903
vt 0.4488695203338861 0.9436225515927994
vt 0.4466007703338861 0.8746256765927993
vt 0.4724257703338861 0.8746256765927993
vt 0.4660195203338861 0.9433413015927994
vt 0.4662052195971538 0.9429635348298472
vt 0.47231569370276133 0.8741400186905012
vt 0.484375 0.8741807252010974
vt 0.47574240155009684 0.9430738532874192
vt 0.44588391500898894 0.5055364153554631
vt 0.4375 0.43659383240042227
vt 0.4495593746717735 0.4365966460125903
vt 0.455421441726248 0.5054230155838852
vt 0.4559656246717735 0.5053935210125904
vt 0.4495593746717735 0.4365966460125903
vt 0.47538437467177347 0.4365966460125903
vt 0.4731156246717735 0.5055122710125903
vt 0.4488695203338861 0.7248725515927994
vt 0.4466007703338861 0.6558756765927993
vt 0.4724257703338861 0.6558756765927993
vt 0.4660195203338861 0.7245913015927994
vt 0.4662052195971538 0.7242135348298472
vt 0.47231569370276133 0.6553900186905012
vt 0.484375 0.6554307252010974
vt 0.47574240155009684 0.7243238532874192
vt 0.5396339150089889 0.9430364153554631
vt 0.53125 0.8740938324004223
vt 0.5433093746717734 0.8740966460125903
vt 0.549171441726248 0.9429230155838852
vn 0.5078801556668672 -0.19952434686912632 0.8380022568503306
vn -0.5181943042344945 -0.02035763338064094 0.8550206019869157
vn -0.35245479155619763 0.1538493137745285 0.9230958826471841
vn 0 -1 0
vn -0.3630301527215535 0 0.9317773919853205
vn -0.36296453409771057 0.01901242797654669 -0.9316089708507903
vn 0.6226247191554058 0.27178063137735586 0.733807704718871
vn 0.36296453409771057 0.01901242797654669 0.9316089708507903
vn 0 -1 0
vn 0.3630301527215535 0 -0.9317773919853205
vn 0.5181943042344945 -0.02035763338064094 -0.8550206019869157
vn 0 -1 0
vn 0 -1 0
vn -0.5078801556668672 -0.19952434686912632 -0.8380022568503306
vn -0.6226247191554058 0.27178063137735586 -0.733807704718871
vn 0.35245479155619763 0.1538493137745285 -0.9230958826471841
vn 0.3627911685772687 0.03627911685772729 -0.931163999348323
vn -0.36173469816717646 0.0844047629056755 -0.9284523919624196
vn -0.51760694136267 0.051760694136267604 -0.8540514532484054
vn -0.5168867676675647 0.07384096680965295 0.8528631666514817
vn -0.3627911685772687 0.03627911685772729 0.931163999348323
vn 0.36173469816717646 0.0844047629056755 0.9284523919624196
vn 0.51760694136267 0.051760694136267604 0.8540514532484054
vn 0.5168867676675647 0.07384096680965295 -0.8528631666514817
usemtl m_782277c5-4df0-ba5c-c1b6-2ef5f66e2d49
f 61/195/53 73/196/53 72/197/53 50/198/53
f 54/199/54 70/200/54 69/201/54 63/202/54
f 57/203/55 65/204/55 64/205/55 52/206/55
f 54/207/56 63/208/56 62/209/56 58/210/56
f 58/211/57 71/212/57 70/213/57 54/214/57
f 55/215/58 68/216/58 67/217/58 59/218/58
f 48/219/59 60/220/59 65/221/59 57/222/59
f 50/223/60 72/224/60 71/225/60 58/226/60
f 58/227/61 62/228/61 61/229/61 50/230/61
f 59/231/62 67/232/62 66/233/62 51/234/62
f 51/235/63 66/236/63 73/237/63 61/238/63
f 51/239/64 61/240/64 62/241/64 59/242/64
f 59/243/65 62/244/65 63/245/65 55/246/65
f 63/247/66 69/248/66 68/249/66 55/250/66
f 53/251/67 64/252/67 65/253/67 56/254/67
f 56/255/68 65/256/68 60/257/68 49/258/68
f 49/259/69 66/260/69 67/261/69 56/262/69
f 56/263/70 67/264/70 68/265/70 53/266/70
f 53/267/71 68/268/71 69/269/71 64/270/71
f 64/271/72 69/272/72 70/273/72 52/274/72
f 52/275/73 70/276/73 71/277/73 57/278/73
f 57/279/74 71/280/74 72/281/74 48/282/74
f 48/283/75 72/284/75 73/285/75 60/286/75
f 60/287/76 73/288/76 66/289/76 49/290/76